<?xml version="1.0" encoding="UTF-8" standalone="no"?>
<!-- Created with Inkscape (http://www.inkscape.org/) -->

<svg
   width="53.240685"
   height="53.241436"
   viewBox="0 0 14.086597 14.086796"
   version="1.1"
   id="svg1"
   inkscape:export-filename="Profile picture icon default.svg"
   inkscape:export-xdpi="96"
   inkscape:export-ydpi="96"
   inkscape:version="1.3.2 (091e20e, 2023-11-25, custom)"
   sodipodi:docname="icon sa.svg"
   xmlns:inkscape="http://www.inkscape.org/namespaces/inkscape"
   xmlns:sodipodi="http://sodipodi.sourceforge.net/DTD/sodipodi-0.dtd"
   xmlns="http://www.w3.org/2000/svg"
   xmlns:svg="http://www.w3.org/2000/svg">
  <sodipodi:namedview
     id="namedview1"
     pagecolor="#505050"
     bordercolor="#ffffff"
     borderopacity="1"
     inkscape:showpageshadow="0"
     inkscape:pageopacity="0"
     inkscape:pagecheckerboard="1"
     inkscape:deskcolor="#505050"
     inkscape:document-units="mm"
     inkscape:zoom="11.64523"
     inkscape:cx="28.767143"
     inkscape:cy="32.244962"
     inkscape:window-width="1920"
     inkscape:window-height="1009"
     inkscape:window-x="-8"
     inkscape:window-y="-8"
     inkscape:window-maximized="1"
     inkscape:current-layer="layer3" />
  <defs
     id="defs1" />
  <g
     inkscape:label="Layer 1"
     inkscape:groupmode="layer"
     id="layer1"
     sodipodi:insensitive="true"
     style="display:none"
     transform="translate(-1.4233675,-1.4233675)">
    <circle
       style="fill:none;stroke:#000000;stroke-width:0.529167;stroke-dasharray:none;stroke-opacity:1"
       id="path1"
       cx="6.8160949"
       cy="7.1114597"
       r="5.7255201" />
    <path
       style="fill:none;stroke:#000000;stroke-width:0.529167;stroke-linecap:round;stroke-dasharray:none;stroke-opacity:1"
       d="m 10.928473,11.360159 3.703412,3.703412"
       id="path2" />
  </g>
  <g
     inkscape:groupmode="layer"
     id="layer2"
     inkscape:label="Keranjang"
     style="display:none"
     sodipodi:insensitive="true"
     transform="translate(-1.4233675,-1.4233675)">
    <path
       id="rect2"
       style="fill:#000000;fill-opacity:1;stroke:none;stroke-width:0.456049;stroke-linecap:round"
       d="M 2.6366684,4.7739269 H 11.54081 c 1.837897,0 1.189017,0.4181774 1.020865,0.8877502 L 10.74405,10.737475 c -0.168153,0.469573 -0.460185,0.952215 -1.0208643,0.88775 L 4.5678955,11.032493 C 4.0072153,10.96803 3.7454302,10.605302 3.5470298,10.144744 L 1.6158027,5.6616771 C 1.4174022,5.2011187 2.0711088,4.7739269 2.6366684,4.7739269 Z"
       sodipodi:nodetypes="sssssssss" />
    <path
       style="fill:none;fill-opacity:1;stroke:#000000;stroke-width:0.885493;stroke-linecap:round;stroke-linejoin:round;stroke-dasharray:none;stroke-opacity:1"
       d="M 4.7918661,12.740423 H 9.9077645 L 13.21034,2.9966235 15.323688,2.6529268"
       id="path3"
       sodipodi:nodetypes="cccc" />
    <circle
       style="fill:#000000;fill-opacity:1;stroke:none;stroke-width:0.97014;stroke-linecap:round;stroke-dasharray:none;stroke-opacity:1"
       id="path4"
       cx="9.8753595"
       cy="14.372416"
       r="0.7068904" />
    <circle
       style="fill:#000000;fill-opacity:1;stroke:none;stroke-width:0.97014;stroke-linecap:round;stroke-dasharray:none;stroke-opacity:1"
       id="circle4"
       cx="5.3540163"
       cy="14.372416"
       r="0.7068904" />
  </g>
  <g
     inkscape:groupmode="layer"
     id="layer3"
     inkscape:label="Logo"
     style="display:none"
     transform="translate(-1.4233675,-1.4233675)">
    <g
       id="g8"
       transform="translate(0.78132761,1.0673389)">
      <path
         id="rect7"
         style="fill:#0845ba;fill-opacity:1;stroke-width:1.22222;stroke-linecap:round;stroke-linejoin:round"
         d="M 0.50332845,5.5691691 3.4411336,8.5069743 4.102592,9.1679159 4.9945272,8.2764974 5.1655762,8.1054484 5.5671021,8.5069743 6.2280436,9.1679159 V 7.3840454 L 6.0575114,7.2135132 6.0182373,7.1742391 5.3955363,6.5520549 4.4126506,5.5691691 H 2.6287801 l 1.874821,1.874821 -0.171049,0.171049 -2.0453532,-2.04587 z m 4.55476075,0 -0.2444295,0.2444295 0.6640421,0.6562907 0.4211629,0.4170288 H 6.3841064 L 6.665743,6.6057983 6.4915934,5.5691691 Z" />
      <g
         id="g1"
         transform="matrix(0.56505055,0,0,0.56505055,6.1969448,3.1026423)"
         style="display:inline">
        <path
           d="m 3.2502368,4.595843 q 0.052912,0 0.062833,0.049605 L 3.703293,6.3882261 3.9447026,4.6520617 q 0.00331,-0.023149 0.019842,-0.039684 0.019842,-0.016535 0.046298,-0.016535 h 0.7969821 q 0.029763,0 0.049605,0.023149 0.019842,0.019842 0.013228,0.049605 L 4.4308286,7.8466043 q -0.00331,0.023149 -0.023149,0.039684 -0.016535,0.016535 -0.039684,0.016535 H 3.4949533 q -0.026456,0 -0.042991,-0.016535 Q 3.3659811,7.8003065 3.2700787,7.6085017 3.1774832,7.4200039 3.1014227,7.2083571 3.0253621,6.9934035 2.9625295,6.7916777 2.8996969,6.5899519 2.8666271,6.4609797 L 2.8335573,6.3287005 Q 2.8203294,6.3783052 2.7971805,6.4675936 2.7740317,6.5535751 2.7012781,6.7850637 2.6318315,7.0165523 2.562385,7.2116641 2.4929384,7.4067759 2.393729,7.6018878 2.2978266,7.8003065 2.2151521,7.886288 2.1986172,7.9028229 2.1688544,7.9028229 H 1.2991186 q -0.026456,0 -0.046298,-0.016535 Q 1.236286,7.8697531 1.232979,7.8466043 L 0.79315072,4.6685966 q -0.003307,-0.029763 0.0165349,-0.049605 0.0198419,-0.023149 0.0496047,-0.023149 H 1.6562725 q 0.023149,0 0.039684,0.016535 0.019842,0.016535 0.023149,0.039684 L 1.9638216,6.3882261 2.3540452,4.6454477 q 0.00992,-0.049605 0.062833,-0.049605 z m 2.579446,3.3069799 H 5.0327006 q -0.029763,0 -0.049605,-0.019842 Q 4.966561,7.8664461 4.966561,7.8366833 V 4.6619826 q 0,-0.029763 0.016535,-0.046298 0.019842,-0.019842 0.049605,-0.019842 h 0.7969822 q 0.026456,0 0.046298,0.019842 0.019842,0.016535 0.019842,0.046298 v 3.1747007 q 0,0.029763 -0.019842,0.046298 -0.019842,0.019842 -0.046298,0.019842 z M 7.9759112,4.6619826 q 0,-0.029763 0.016535,-0.046298 0.019842,-0.019842 0.046298,-0.019842 h 0.8002891 q 0.026456,0 0.046298,0.019842 0.019842,0.016535 0.019842,0.046298 v 3.1747007 q 0,0.026456 -0.019842,0.046298 -0.019842,0.019842 -0.046298,0.019842 H 8.012288 q -0.036377,0 -0.056219,-0.03307 L 6.9209846,6.0376863 v 1.798997 q 0,0.029763 -0.019842,0.046298 -0.019842,0.019842 -0.046298,0.019842 H 6.0578628 q -0.029763,0 -0.049605,-0.019842 -0.016535,-0.016535 -0.016535,-0.046298 V 4.6619826 q 0,-0.029763 0.016535,-0.046298 Q 6.0281,4.595843 6.0578628,4.595843 h 0.826745 q 0.036377,0 0.052912,0.029763 l 1.0383917,1.6700249 z m 4.4644218,1.2169686 q 0.02646,0 0.04299,0.019842 0.01984,0.019842 0.01984,0.046298 v 0.327391 q 0,0.3505399 -0.138893,0.671317 -0.138894,0.320777 -0.373689,0.5522656 -0.231489,0.2314886 -0.55888,0.3670748 -0.324084,0.1355861 -0.681238,0.1355861 -0.353846,0 -0.67793,-0.1355861 Q 9.7484515,7.727553 9.5136559,7.4960644 9.2788603,7.2645758 9.1399672,6.9437988 9.001074,6.6230217 9.001074,6.2724818 9.001074,5.921942 9.1399672,5.6044719 9.2788603,5.2836948 9.5136559,5.0522063 9.7484515,4.8207177 10.072536,4.6851315 10.39662,4.5462383 10.753773,4.5462383 q 0.419987,0 0.783755,0.1851909 0.367074,0.1818839 0.608484,0.499354 0.01653,0.019842 0.01323,0.046298 -0.0033,0.026456 -0.02315,0.042991 l -0.66801,0.502661 q -0.01984,0.016535 -0.0463,0.013228 -0.02646,-0.00331 -0.04299,-0.026456 -0.109131,-0.1521211 -0.277787,-0.2381026 -0.168656,-0.089289 -0.363768,-0.089289 -0.330698,0 -0.565493,0.2314886 -0.2314887,0.2314886 -0.2314887,0.5588796 0,0.327391 0.2314887,0.5588796 0.234795,0.2314886 0.565493,0.2314886 0.214954,0 0.396838,-0.1058233 0.185191,-0.1091304 0.291014,-0.2877073 h -0.780447 q -0.02646,0 -0.0463,-0.019842 -0.01984,-0.019842 -0.01984,-0.046298 v -0.658089 q 0,-0.026456 0.01984,-0.046298 0.01984,-0.019842 0.0463,-0.019842 z m 2.14623,-1.1706709 -0.06283,0.6448611 q -0.0033,0.026456 -0.02646,0.046298 -0.02315,0.016535 -0.0496,0.00992 -0.330698,-0.072754 -0.605177,-0.076061 -0.112438,-0.00331 -0.195112,0.029763 -0.07937,0.029763 -0.115745,0.079368 -0.03307,0.049605 -0.0463,0.085982 -0.01323,0.036377 -0.01323,0.06614 0,0.03307 0.01323,0.072754 0.01323,0.039684 0.05291,0.099209 0.03968,0.059526 0.13228,0.1157443 0.0959,0.056219 0.231488,0.089289 0.152121,0.036377 0.294321,0.1223582 0.145508,0.085981 0.267866,0.2182607 0.122358,0.1289722 0.195112,0.320777 0.07275,0.1918049 0.07275,0.4166795 0,0.4828191 -0.297628,0.7143077 -0.297628,0.2347955 -0.962331,0.2347955 -0.373689,0 -0.70108,-0.039684 -0.02315,-0.00331 -0.03968,-0.023149 -0.01653,-0.019842 -0.01653,-0.046298 l 0.06283,-0.6448611 q 0.0033,-0.029763 0.02646,-0.046298 0.02315,-0.016535 0.05291,-0.00992 0.31747,0.069447 0.582028,0.072754 0.115744,0.00331 0.195112,-0.026456 0.08267,-0.03307 0.115744,-0.079368 0.03307,-0.049605 0.0463,-0.085981 0.01323,-0.039684 0.01323,-0.069447 0,-0.03307 -0.01323,-0.072754 -0.01323,-0.039684 -0.05291,-0.099209 -0.03638,-0.059526 -0.132279,-0.1157443 -0.09259,-0.056219 -0.228182,-0.089289 -0.155428,-0.036377 -0.297628,-0.1223583 -0.1422,-0.085981 -0.264558,-0.2149536 -0.122358,-0.1289723 -0.198419,-0.3207771 -0.07275,-0.1951118 -0.07275,-0.4199864 0,-0.4629772 0.334005,-0.7043868 0.337312,-0.2447165 0.925955,-0.2447165 0.31747,0 0.720921,0.042991 0.02315,0.00331 0.03968,0.023149 0.01653,0.019842 0.01653,0.046298 z"
           id="text4"
           style="font-size:3.30698px;font-family:'MOON GET!';-inkscape-font-specification:'MOON GET!, Normal';fill:#ffffff;stroke-width:0.964537;stroke-linecap:round;stroke-linejoin:round"
           transform="scale(1.0415696,0.96008946)"
           aria-label="WINGS" />
        <path
           d="M 0.24389255,11.145069 V 8.2252 q 0,-0.027374 0.0152076,-0.042581 Q 0.27734935,8.16437 0.30472305,8.16437 H 1.7464083 q 0.1916164,0 0.3528175,0.066914 0.1612011,0.066914 0.2859038,0.2007409 0.1247027,0.1307858 0.1946579,0.3406514 0.069955,0.2098655 0.069955,0.4805617 0,0.2706962 -0.069955,0.4836032 -0.069955,0.2098656 -0.1946579,0.3406518 -0.1247027,0.130785 -0.2859038,0.197699 -0.1612011,0.06691 -0.3528175,0.06691 H 1.0985625 v 0.802964 q 0,0.02737 -0.018249,0.04258 -0.018249,0.01825 -0.042581,0.01825 H 0.30472315 q -0.0273738,0 -0.0456229,-0.01825 -0.0152076,-0.01521 -0.0152076,-0.04258 z M 1.4757122,9.6334283 q 0.1338273,0 0.2220316,-0.103412 0.091246,-0.103412 0.091246,-0.2767792 0,-0.1733672 -0.091246,-0.2737377 -0.088204,-0.103412 -0.2220316,-0.103412 h -0.349776 q -0.027374,0 -0.027374,0.027374 V 9.603013 q 0,0.030415 0.027374,0.030415 z M 4.1492155,8.1643694 q 0.03954,0 0.054747,0.03954 L 5.2806646,11.10857 q 0.00304,0.0091 0.00304,0.01825 v 0.02129 q 0,0.02433 -0.018249,0.03954 -0.015208,0.01825 -0.03954,0.01825 H 4.4777007 q -0.042581,0 -0.054747,-0.03954 L 4.2617521,10.731421 H 3.2884625 l -0.1642426,0.434938 q -0.012166,0.03954 -0.054747,0.03954 H 2.3242976 q -0.027374,0 -0.045623,-0.01825 -0.015208,-0.01521 -0.015208,-0.03954 v -0.02129 q 0,-0.0091 0.00304,-0.02129 L 3.3432101,8.2039093 q 0.015208,-0.03954 0.054747,-0.03954 z M 3.5652417,9.9832043 H 3.9849729 L 3.7720658,9.4205212 Z m 3.856662,0.1794507 q 0.355859,0.404523 0.3741082,1.028037 0,0.02433 -0.018249,0.04258 -0.015208,0.01825 -0.042581,0.01825 H 6.9474251 q -0.024332,0 -0.042581,-0.01825 Q 6.889636,11.218065 6.889636,11.193733 6.8744283,10.825708 6.7010611,10.628009 6.5307355,10.433351 6.229624,10.41206 v 0.778632 q 0,0.02433 -0.018249,0.04258 -0.018249,0.01825 -0.042581,0.01825 H 5.4357847 q -0.027374,0 -0.045623,-0.01825 -0.015208,-0.01825 -0.015208,-0.04258 V 8.2252 q 0,-0.027374 0.015208,-0.042581 0.018249,-0.018249 0.045623,-0.018249 h 1.4416852 q 0.1916164,0 0.3528174,0.066914 0.1612011,0.066914 0.2859038,0.2007409 0.1247028,0.1307858 0.194658,0.3406514 0.069955,0.2098655 0.069955,0.4805617 0,0.6204721 -0.3589004,0.909417 z M 6.229624,8.9551672 V 9.603013 q 0,0.027374 0.027374,0.027374 h 0.3497759 q 0.1338273,0 0.2220317,-0.094287 0.091246,-0.097329 0.091246,-0.2554885 0,-0.1612011 -0.091246,-0.2554885 -0.088205,-0.09733 -0.2220319,-0.09733 H 6.2569978 q -0.027374,0 -0.027374,0.027374 z M 10.19578,8.2252 v 0.6052644 q 0,0.024332 -0.01825,0.042581 -0.01825,0.015208 -0.04258,0.015208 H 9.468854 v 2.2568156 q 0,0.02737 -0.018249,0.04258 -0.018249,0.01825 -0.042581,0.01825 H 8.6719731 q -0.024332,0 -0.042581,-0.01825 -0.015208,-0.01521 -0.015208,-0.04258 V 8.8882535 H 7.948089 q -0.027374,0 -0.045623,-0.015208 Q 7.887258,8.8547965 7.887258,8.8304645 V 8.2252 q 0,-0.027374 0.015208,-0.042581 Q 7.920715,8.16437 7.948089,8.16437 h 2.18686 q 0.02433,0 0.04258,0.018249 0.01825,0.015208 0.01825,0.042581 z m 1.940496,0.042581 -0.05779,0.5930983 q -0.003,0.024332 -0.02433,0.042582 -0.02129,0.015208 -0.04562,0.00912 -0.304153,-0.066914 -0.5566,-0.069955 -0.103412,-0.00304 -0.17945,0.027374 -0.073,0.027374 -0.106453,0.072997 -0.03042,0.045623 -0.04258,0.07908 -0.01217,0.033457 -0.01217,0.060831 0,0.030415 0.01217,0.066914 0.01217,0.036498 0.04866,0.091246 0.0365,0.054747 0.121661,0.1064535 0.0882,0.051706 0.212907,0.082121 0.13991,0.033457 0.270696,0.1125366 0.133827,0.07908 0.246364,0.200741 0.112537,0.1186197 0.17945,0.2950286 0.06691,0.176409 0.06691,0.383233 0,0.444063 -0.273738,0.65697 -0.273737,0.215949 -0.885085,0.215949 -0.343693,0 -0.644804,-0.0365 -0.02129,-0.003 -0.0365,-0.02129 -0.01521,-0.01825 -0.01521,-0.04258 l 0.05779,-0.593098 q 0.003,-0.02737 0.02433,-0.04258 0.02129,-0.01521 0.04866,-0.0091 0.291986,0.06387 0.535309,0.06691 0.106453,0.003 0.17945,-0.02433 0.07604,-0.03041 0.106454,-0.073 0.03041,-0.04562 0.04258,-0.07908 0.01217,-0.0365 0.01217,-0.06387 0,-0.03042 -0.01217,-0.06691 -0.01217,-0.0365 -0.04866,-0.09125 -0.03346,-0.05475 -0.121662,-0.106453 Q 11.153855,10.05926 11.02915,10.02885 10.886198,9.995393 10.755412,9.9163136 10.624626,9.8372336 10.51209,9.7186142 10.399553,9.5999945 10.329598,9.4235858 q -0.06691,-0.1794503 -0.06691,-0.3862743 0,-0.4258142 0.307195,-0.6478459 0.310236,-0.2250732 0.851628,-0.2250732 0.291987,0 0.663054,0.03954 0.02129,0.00304 0.0365,0.021291 0.01521,0.018249 0.01521,0.042581 z"
           id="text4-4"
           style="font-size:3.04153px;font-family:'MOON GET!';-inkscape-font-specification:'MOON GET!, Normal';fill:#ffffff;stroke-width:0.887113;stroke-linecap:round;stroke-linejoin:round"
           transform="scale(1.0415696,0.96008946)"
           aria-label="PARTS" />
        <path
           d="m 13.553279,8.5545881 q 0,0.072463 -0.04203,0.1550719 -0.04203,0.082608 -0.111594,0.1608689 -0.06956,0.076811 -0.13913,0.1420285 -0.06812,0.065217 -0.142029,0.1333328 -0.07391,0.066667 -0.104347,0.1014489 h 0.468114 q 0.01159,0 0.02029,0.0087 0.0087,0.00725 0.0087,0.02029 v 0.2884048 q 0,0.013043 -0.0087,0.02029 -0.0087,0.0087 -0.02029,0.0087 h -0.915938 q -0.01304,0 -0.02174,-0.0087 -0.0072,-0.00725 -0.0072,-0.02029 V 9.2560348 q 0,-0.0087 0.0058,-0.015942 0.107246,-0.1536226 0.247825,-0.2869555 0.03188,-0.030435 0.09275,-0.084058 0.06087,-0.055072 0.0942,-0.086956 0.03478,-0.033333 0.07391,-0.075362 0.03913,-0.042029 0.05652,-0.076811 0.01884,-0.036232 0.01884,-0.066666 0,-0.037681 -0.02174,-0.060869 -0.02174,-0.024638 -0.05507,-0.031884 -0.03333,-0.0087 -0.05217,-0.010145 -0.01739,-0.0029 -0.03043,-0.00145 -0.185506,0.0058 -0.318839,0.036232 -0.01304,0.0029 -0.02319,-0.00435 -0.01014,-0.0087 -0.01159,-0.02029 L 12.582321,8.173428 q -0.0014,-0.011594 0.0058,-0.02029 0.0087,-0.010145 0.02029,-0.011594 0.21884,-0.01884 0.424636,-0.01884 0.04638,0 0.0913,0.00435 0.04638,0.00435 0.09855,0.017391 0.05362,0.013043 0.09855,0.033333 0.04638,0.02029 0.08986,0.053623 0.04348,0.033333 0.07391,0.07826 0.03188,0.043478 0.04928,0.107246 0.01884,0.062319 0.01884,0.1376807 z m 1.027534,-0.4101434 q 0.01159,0 0.01884,0.0087 0.0087,0.00725 0.0087,0.01884 v 0.311593 q 0,0.011594 -0.0087,0.02029 -0.0072,0.0087 -0.01884,0.0087 h -0.533331 v 0.192753 q 0.01159,0 0.03188,0 0.02174,-0.00145 0.08261,0.00435 0.06087,0.00435 0.115942,0.017391 0.05507,0.013043 0.121738,0.046377 0.06812,0.031884 0.115942,0.07971 0.04927,0.046377 0.08116,0.1275358 0.03333,0.07971 0.03333,0.182608 0,0.089855 -0.02464,0.1637675 -0.02464,0.073913 -0.06232,0.1217387 -0.03768,0.047826 -0.09275,0.084058 -0.05507,0.036232 -0.107246,0.055072 -0.05072,0.02029 -0.111594,0.030435 -0.06087,0.011594 -0.102898,0.014493 -0.04058,0.0029 -0.08116,0.0029 -0.09565,0 -0.423187,-0.01884 -0.01159,-0.00145 -0.02029,-0.010145 -0.0072,-0.0087 -0.0058,-0.02029 l 0.02174,-0.2999989 q 0.0014,-0.013043 0.01159,-0.02029 0.01159,-0.0087 0.02319,-0.0058 0.166666,0.044927 0.369563,0.044927 0.05072,0 0.08696,-0.013043 0.03768,-0.014493 0.05652,-0.036232 0.02029,-0.023188 0.02899,-0.046377 0.01014,-0.023188 0.01014,-0.046377 0,-0.09855 -0.186956,-0.09855 -0.115942,0 -0.376811,0.0087 -0.01159,0 -0.02029,-0.0087 -0.0087,-0.0087 -0.0087,-0.02029 v -0.87247 q 0,-0.011594 0.0087,-0.01884 0.0087,-0.0087 0.02029,-0.0087 z"
           id="text1"
           style="font-size:1.44927px;font-family:'MOON GET!';-inkscape-font-specification:'MOON GET!, Normal';fill:#ffffff;stroke-width:0.422706;stroke-linecap:round;stroke-linejoin:round"
           transform="scale(1.0415696,0.96008946)"
           aria-label="25" />
      </g>
    </g>
  </g>
  <g
     inkscape:groupmode="layer"
     id="layer4"
     inkscape:label="Profile"
     transform="translate(-1.4233675,-1.4233675)">
    <circle
       style="fill:#efefef;fill-opacity:1;stroke:none;stroke-width:0.0132292;stroke-linecap:round;stroke-linejoin:round;stroke-dasharray:none;stroke-opacity:1"
       id="path8"
       cx="8.4666662"
       cy="8.4666662"
       r="7.0432987" />
    <circle
       style="fill:#b9b9b9;fill-opacity:1;stroke:none;stroke-width:0.0174771;stroke-linecap:round;stroke-linejoin:round;stroke-dasharray:none;stroke-opacity:1"
       id="path9"
       cx="8.4666662"
       cy="8.4666662"
       r="3.2717259" />
    <path
       id="circle9"
       style="fill:#b9b9b9;fill-opacity:1;stroke:none;stroke-width:0.0305849;stroke-linecap:round;stroke-linejoin:round;stroke-dasharray:none;stroke-opacity:1"
       d="m 8.4666667,11.965678 a 5.7255201,5.7255201 0 0 0 -4.35684,2.015898 7.0432987,7.0432987 0 0 0 4.35684,1.528588 7.0432987,7.0432987 0 0 0 4.3578733,-1.530139 5.7255201,5.7255201 0 0 0 -4.3578733,-2.014347 z" />
  </g>
</svg>
