<?xml version="1.0" encoding="UTF-8" standalone="no"?>
<!-- Created with Inkscape (http://www.inkscape.org/) -->

<svg
   width="127.99999"
   height="127.99999"
   viewBox="0 0 33.866664 33.866664"
   version="1.1"
   id="svg1"
   sodipodi:docname="notification-icon.svg"
   inkscape:version="1.3.2 (091e20e, 2023-11-25, custom)"
   xmlns:inkscape="http://www.inkscape.org/namespaces/inkscape"
   xmlns:sodipodi="http://sodipodi.sourceforge.net/DTD/sodipodi-0.dtd"
   xmlns="http://www.w3.org/2000/svg"
   xmlns:svg="http://www.w3.org/2000/svg">
  <sodipodi:namedview
     id="namedview1"
     pagecolor="#505050"
     bordercolor="#eeeeee"
     borderopacity="1"
     inkscape:showpageshadow="0"
     inkscape:pageopacity="0"
     inkscape:pagecheckerboard="0"
     inkscape:deskcolor="#505050"
     inkscape:document-units="mm"
     inkscape:zoom="3.1757814"
     inkscape:cx="54.789665"
     inkscape:cy="78.878224"
     inkscape:window-width="1920"
     inkscape:window-height="1009"
     inkscape:window-x="-8"
     inkscape:window-y="-8"
     inkscape:window-maximized="1"
     inkscape:current-layer="layer1" />
  <defs
     id="defs1" />
  <g
     inkscape:label="Layer 1"
     inkscape:groupmode="layer"
     id="layer1">
    <g
       id="g2"
       transform="matrix(1.5603319,0.33547051,-0.33547051,1.5603319,-2.2136158,-15.442359)"
       style="stroke:none">
      <circle
         style="vector-effect:non-scaling-stroke;fill:#f3f3f3;fill-opacity:1;stroke:none;stroke-width:0.163334;stroke-dasharray:none;-inkscape-stroke:hairline"
         id="path1"
         cx="16.933332"
         cy="7.8680491"
         r="1.635" />
      <path
         id="path1-6"
         style="vector-effect:non-scaling-stroke;fill:#f3f3f3;fill-opacity:1;stroke:none;stroke-width:0.264583;stroke-dasharray:none;-inkscape-stroke:hairline"
         d="m 14.304553,25.034015 a 2.6485238,2.6485238 0 0 0 -0.01964,0.278019 2.6485238,2.6485238 0 0 0 2.648417,2.648934 2.6485238,2.6485238 0 0 0 2.648417,-2.648934 2.6485238,2.6485238 0 0 0 -0.01447,-0.278019 z" />
      <path
         id="path1-6-1"
         style="vector-effect:non-scaling-stroke;fill:#f3f3f3;fill-opacity:1;stroke:none;stroke-width:0.264583;stroke-dasharray:none;-inkscape-stroke:hairline"
         d="M 16.933333,9.9704508 A 7.1026025,7.1026025 0 0 0 9.8309245,17.07286 v 1.963704 a 2.6485238,2.6485238 0 0 0 -2.6489339,2.648417 2.6485238,2.6485238 0 0 0 2.6489339,2.648417 H 24.035742 a 2.6485238,2.6485238 0 0 0 2.648934,-2.648417 2.6485238,2.6485238 0 0 0 -2.648934,-2.648417 V 17.07286 A 7.1026025,7.1026025 0 0 0 16.933333,9.9704508 Z" />
    </g>
  </g>
</svg>
